<svg xmlns="http://www.w3.org/2000/svg">
    <symbol id='close' viewBox="0 0 32 32" fill="none">
        <path d="M24 8L8 24M8 8L24 24" stroke="#A0A3BD" stroke-width="1.5" stroke-linecap="round"
            stroke-linejoin="round" />
    </symbol>

    <symbol id='star' viewBox="0 0 36 36" fill="none">
        <path
            d="M19.5658 2.41666C19.4099 2.13845 19.1826 1.90682 18.9074 1.74559C18.6322 1.58437 18.3191 1.49939 18.0001 1.49939C17.6812 1.49939 17.368 1.58437 17.0928 1.74559C16.8177 1.90682 16.5904 2.13845 16.4345 2.41666C16.0678 3.08399 15.7152 3.75988 15.3766 4.44433C14.31 6.60941 13.4031 8.84961 12.6633 11.147C12.4085 11.9372 11.6531 12.4853 10.7878 12.5092C8.1647 12.5781 5.55014 12.8385 2.96497 13.2883C1.54597 13.5377 1.01247 15.1547 2.02081 16.141C2.25058 16.3671 2.48281 16.5902 2.71747 16.8102C4.47208 18.4672 6.32728 20.0144 8.27247 21.443C8.9453 21.9362 9.22214 22.7813 8.96547 23.555C7.98774 26.4939 7.28801 29.5181 6.87547 32.5878C6.69214 33.972 8.17347 34.9492 9.46047 34.2892C12.0125 32.9806 14.453 31.4648 16.7571 29.7572C17.118 29.4937 17.5533 29.3518 18.0001 29.3518C18.447 29.3518 18.8822 29.4937 19.2431 29.7572C21.5469 31.4655 23.9873 32.9813 26.5398 34.2892C27.825 34.9492 29.3081 33.972 29.1248 32.5878C29.0539 32.0684 28.9763 31.552 28.892 31.0387C28.4684 28.4996 27.8475 25.9975 27.0348 23.555C26.7781 22.7813 27.0531 21.9362 27.7278 21.443C29.9346 19.826 32.0238 18.0542 33.9795 16.141C34.9878 15.1547 34.4561 13.5377 33.0353 13.2883C30.4505 12.8359 27.8357 12.5755 25.2125 12.5092C24.7977 12.5026 24.3951 12.3682 24.0595 12.1245C23.7238 11.8807 23.4715 11.5394 23.337 11.147C22.3629 8.12322 21.1 5.19841 19.5658 2.41666Z"
            stroke="#D9DBE9" stroke-width="1.5" stroke-linecap="round" stroke-linejoin="round" />
    </symbol>

    <symbol id='star-active' viewBox="0 0 34 34" fill="none">
        <path
            d="M18.5658 1.41666C18.4099 1.13845 18.1826 0.906815 17.9074 0.745594C17.6322 0.584373 17.3191 0.49939 17.0001 0.49939C16.6812 0.49939 16.368 0.584373 16.0928 0.745594C15.8177 0.906815 15.5904 1.13845 15.4345 1.41666C15.0678 2.08399 14.7152 2.75988 14.3766 3.44433C13.31 5.60941 12.4031 7.84961 11.6633 10.147C11.4085 10.9372 10.6531 11.4853 9.78781 11.5092C7.16471 11.5781 4.55014 11.8385 1.96497 12.2883C0.545973 12.5377 0.0124725 14.1547 1.02081 15.141C1.25058 15.3671 1.48281 15.5902 1.71747 15.8102C3.47208 17.4672 5.32728 19.0144 7.27247 20.443C7.94531 20.9362 8.22214 21.7813 7.96547 22.555C6.98774 25.4939 6.28801 28.5181 5.87547 31.5878C5.69214 32.972 7.17347 33.9492 8.46047 33.2892C11.0125 31.9806 13.453 30.4648 15.7571 28.7572C16.118 28.4937 16.5533 28.3518 17.0001 28.3518C17.447 28.3518 17.8822 28.4937 18.2431 28.7572C20.5469 30.4655 22.9873 31.9813 25.5398 33.2892C26.825 33.9492 28.3081 32.972 28.1248 31.5878C28.0539 31.0684 27.9763 30.552 27.892 30.0387C27.4684 27.4996 26.8475 24.9975 26.0348 22.555C25.7781 21.7813 26.0531 20.9362 26.7278 20.443C28.9347 18.826 31.0238 17.0542 32.9795 15.141C33.9878 14.1547 33.4561 12.5377 32.0353 12.2883C29.4505 11.8359 26.8357 11.5755 24.2125 11.5092C23.7977 11.5026 23.3951 11.3682 23.0595 11.1245C22.7238 10.8807 22.4715 10.5394 22.337 10.147C21.3629 7.12322 20.1 4.19841 18.5658 1.41666Z"
            fill="#FFE01A" />
    </symbol>

    <symbol id='arrow-down' viewBox="0 0 24 24" fill="none">
        <path d="M6 9L12 15L18 9" stroke="#A0A3BD" stroke-width="1.5" stroke-linecap="round"
            stroke-linejoin="round" />
    </symbol>


</svg>