<svg width="36" height="36" viewBox="0 0 36 36" fill="none" xmlns="http://www.w3.org/2000/svg">
<path d="M19.5658 2.41666C19.4099 2.13845 19.1826 1.90682 18.9074 1.74559C18.6322 1.58437 18.3191 1.49939 18.0001 1.49939C17.6812 1.49939 17.368 1.58437 17.0928 1.74559C16.8177 1.90682 16.5904 2.13845 16.4345 2.41666C16.0678 3.08399 15.7152 3.75988 15.3766 4.44433C14.31 6.60941 13.4031 8.84961 12.6633 11.147C12.4085 11.9372 11.6531 12.4853 10.7878 12.5092C8.1647 12.5781 5.55014 12.8385 2.96497 13.2883C1.54597 13.5377 1.01247 15.1547 2.02081 16.141C2.25058 16.3671 2.48281 16.5902 2.71747 16.8102C4.47208 18.4672 6.32728 20.0144 8.27247 21.443C8.9453 21.9362 9.22214 22.7813 8.96547 23.555C7.98774 26.4939 7.28801 29.5181 6.87547 32.5878C6.69214 33.972 8.17347 34.9492 9.46047 34.2892C12.0125 32.9806 14.453 31.4648 16.7571 29.7572C17.118 29.4937 17.5533 29.3518 18.0001 29.3518C18.447 29.3518 18.8822 29.4937 19.2431 29.7572C21.5469 31.4655 23.9873 32.9813 26.5398 34.2892C27.825 34.9492 29.3081 33.972 29.1248 32.5878C29.0539 32.0684 28.9763 31.552 28.892 31.0387C28.4684 28.4996 27.8475 25.9975 27.0348 23.555C26.7781 22.7813 27.0531 21.9362 27.7278 21.443C29.9346 19.826 32.0238 18.0542 33.9795 16.141C34.9878 15.1547 34.4561 13.5377 33.0353 13.2883C30.4505 12.8359 27.8357 12.5755 25.2125 12.5092C24.7977 12.5026 24.3951 12.3682 24.0595 12.1245C23.7238 11.8807 23.4715 11.5394 23.337 11.147C22.3629 8.12322 21.1 5.19841 19.5658 2.41666Z" stroke="#D9DBE9" stroke-width="1.5" stroke-linecap="round" stroke-linejoin="round"/>
</svg>
