<svg width="34" height="34" viewBox="0 0 34 34" fill="none" xmlns="http://www.w3.org/2000/svg">
<path d="M18.5658 1.41666C18.4099 1.13845 18.1826 0.906815 17.9074 0.745594C17.6322 0.584373 17.3191 0.49939 17.0001 0.49939C16.6812 0.49939 16.368 0.584373 16.0928 0.745594C15.8177 0.906815 15.5904 1.13845 15.4345 1.41666C15.0678 2.08399 14.7152 2.75988 14.3766 3.44433C13.31 5.60941 12.4031 7.84961 11.6633 10.147C11.4085 10.9372 10.6531 11.4853 9.78781 11.5092C7.16471 11.5781 4.55014 11.8385 1.96497 12.2883C0.545973 12.5377 0.0124725 14.1547 1.02081 15.141C1.25058 15.3671 1.48281 15.5902 1.71747 15.8102C3.47208 17.4672 5.32728 19.0144 7.27247 20.443C7.94531 20.9362 8.22214 21.7813 7.96547 22.555C6.98774 25.4939 6.28801 28.5181 5.87547 31.5878C5.69214 32.972 7.17347 33.9492 8.46047 33.2892C11.0125 31.9806 13.453 30.4648 15.7571 28.7572C16.118 28.4937 16.5533 28.3518 17.0001 28.3518C17.447 28.3518 17.8822 28.4937 18.2431 28.7572C20.5469 30.4655 22.9873 31.9813 25.5398 33.2892C26.825 33.9492 28.3081 32.972 28.1248 31.5878C28.0539 31.0684 27.9763 30.552 27.892 30.0387C27.4684 27.4996 26.8475 24.9975 26.0348 22.555C25.7781 21.7813 26.0531 20.9362 26.7278 20.443C28.9347 18.826 31.0238 17.0542 32.9795 15.141C33.9878 14.1547 33.4561 12.5377 32.0353 12.2883C29.4505 11.8359 26.8357 11.5755 24.2125 11.5092C23.7977 11.5026 23.3951 11.3682 23.0595 11.1245C22.7238 10.8807 22.4715 10.5394 22.337 10.147C21.3629 7.12322 20.1 4.19841 18.5658 1.41666Z" fill="#FFE01A"/>
</svg>
